<mxfile host="app.diagrams.net" modified="2023-04-13T06:41:09.941Z" agent="Mozilla/5.0 (Windows NT 10.0; Win64; x64) AppleWebKit/537.36 (KHTML, like Gecko) Chrome/111.0.0.0 Safari/537.36" version="21.1.7" etag="wu-Hn0e5b3oGxJ7QM0k-" type="github">
  <diagram name="페이지-1" id="K38AMDydlP9vqRFa5Xmd">
    <mxGraphModel>
      <root>
        <mxCell id="0" />
        <mxCell id="1" parent="0" />
      </root>
    </mxGraphModel>
  </diagram>
</mxfile>
